<?xml version="1.0" encoding="UTF-8" standalone="no"?>
<svg
   xmlns:dc="http://purl.org/dc/elements/1.1/"
   xmlns:cc="http://creativecommons.org/ns#"
   xmlns:rdf="http://www.w3.org/1999/02/22-rdf-syntax-ns#"
   xmlns:svg="http://www.w3.org/2000/svg"
   xmlns="http://www.w3.org/2000/svg"
   viewBox="0 0 1122.52 1587.4"
   height="1587.4"
   width="1122.52"
   xml:space="preserve"
   id="svg2"
   version="1.1"><metadata
     id="metadata8"><rdf:RDF><cc:Work
         rdf:about=""><dc:format>image/svg+xml</dc:format><dc:type
           rdf:resource="http://purl.org/dc/dcmitype/StillImage" /></cc:Work></rdf:RDF></metadata><defs
     id="defs6"><linearGradient
       id="linearGradient36"
       spreadMethod="pad"
       gradientTransform="matrix(534.23999,-10.08,-10.08,-534.23999,195.15022,598.39288)"
       gradientUnits="userSpaceOnUse"
       y2="0"
       x2="1"
       y1="0"
       x1="0"><stop
         id="stop24"
         offset="0"
         style="stop-opacity:1;stop-color:#8c5719" /><stop
         id="stop26"
         offset="0.0360176"
         style="stop-opacity:1;stop-color:#8c5719" /><stop
         id="stop28"
         offset="0.48118032"
         style="stop-opacity:1;stop-color:#ebea5e" /><stop
         id="stop30"
         offset="0.56224"
         style="stop-opacity:1;stop-color:#ebea5e" /><stop
         id="stop32"
         offset="0.70786007"
         style="stop-opacity:1;stop-color:#ebea5e" /><stop
         id="stop34"
         offset="1"
         style="stop-opacity:1;stop-color:#b48a33" /></linearGradient><linearGradient
       id="linearGradient64"
       spreadMethod="pad"
       gradientTransform="matrix(534.23999,-10.08,-10.08,-534.23999,195.87306,636.70331)"
       gradientUnits="userSpaceOnUse"
       y2="0"
       x2="1"
       y1="0"
       x1="0"><stop
         id="stop52"
         offset="0"
         style="stop-opacity:1;stop-color:#8c5719" /><stop
         id="stop54"
         offset="0.0360176"
         style="stop-opacity:1;stop-color:#8c5719" /><stop
         id="stop56"
         offset="0.48118032"
         style="stop-opacity:1;stop-color:#ebea5e" /><stop
         id="stop58"
         offset="0.56224"
         style="stop-opacity:1;stop-color:#ebea5e" /><stop
         id="stop60"
         offset="0.70786007"
         style="stop-opacity:1;stop-color:#ebea5e" /><stop
         id="stop62"
         offset="1"
         style="stop-opacity:1;stop-color:#b48a33" /></linearGradient><linearGradient
       id="linearGradient92"
       spreadMethod="pad"
       gradientTransform="matrix(534.23999,-10.08,-10.08,-534.23999,190.96564,376.60971)"
       gradientUnits="userSpaceOnUse"
       y2="0"
       x2="1"
       y1="0"
       x1="0"><stop
         id="stop80"
         offset="0"
         style="stop-opacity:1;stop-color:#8c5719" /><stop
         id="stop82"
         offset="0.0360176"
         style="stop-opacity:1;stop-color:#8c5719" /><stop
         id="stop84"
         offset="0.48118032"
         style="stop-opacity:1;stop-color:#ebea5e" /><stop
         id="stop86"
         offset="0.56224"
         style="stop-opacity:1;stop-color:#ebea5e" /><stop
         id="stop88"
         offset="0.70786007"
         style="stop-opacity:1;stop-color:#ebea5e" /><stop
         id="stop90"
         offset="1"
         style="stop-opacity:1;stop-color:#b48a33" /></linearGradient><linearGradient
       id="linearGradient120"
       spreadMethod="pad"
       gradientTransform="matrix(534.23999,-10.08,-10.08,-534.23999,190.98054,377.40036)"
       gradientUnits="userSpaceOnUse"
       y2="0"
       x2="1"
       y1="0"
       x1="0"><stop
         id="stop108"
         offset="0"
         style="stop-opacity:1;stop-color:#8c5719" /><stop
         id="stop110"
         offset="0.0360176"
         style="stop-opacity:1;stop-color:#8c5719" /><stop
         id="stop112"
         offset="0.48118032"
         style="stop-opacity:1;stop-color:#ebea5e" /><stop
         id="stop114"
         offset="0.56224"
         style="stop-opacity:1;stop-color:#ebea5e" /><stop
         id="stop116"
         offset="0.70786007"
         style="stop-opacity:1;stop-color:#ebea5e" /><stop
         id="stop118"
         offset="1"
         style="stop-opacity:1;stop-color:#b48a33" /></linearGradient><linearGradient
       id="linearGradient148"
       spreadMethod="pad"
       gradientTransform="matrix(534.23999,-10.08,-10.08,-534.23999,190.99971,378.41544)"
       gradientUnits="userSpaceOnUse"
       y2="0"
       x2="1"
       y1="0"
       x1="0"><stop
         id="stop136"
         offset="0"
         style="stop-opacity:1;stop-color:#8c5719" /><stop
         id="stop138"
         offset="0.0360176"
         style="stop-opacity:1;stop-color:#8c5719" /><stop
         id="stop140"
         offset="0.48118032"
         style="stop-opacity:1;stop-color:#ebea5e" /><stop
         id="stop142"
         offset="0.56224"
         style="stop-opacity:1;stop-color:#ebea5e" /><stop
         id="stop144"
         offset="0.70786007"
         style="stop-opacity:1;stop-color:#ebea5e" /><stop
         id="stop146"
         offset="1"
         style="stop-opacity:1;stop-color:#b48a33" /></linearGradient><linearGradient
       id="linearGradient176"
       spreadMethod="pad"
       gradientTransform="matrix(534.23999,-10.08,-10.08,-534.23999,191.01402,379.17407)"
       gradientUnits="userSpaceOnUse"
       y2="0"
       x2="1"
       y1="0"
       x1="0"><stop
         id="stop164"
         offset="0"
         style="stop-opacity:1;stop-color:#8c5719" /><stop
         id="stop166"
         offset="0.0360176"
         style="stop-opacity:1;stop-color:#8c5719" /><stop
         id="stop168"
         offset="0.48118032"
         style="stop-opacity:1;stop-color:#ebea5e" /><stop
         id="stop170"
         offset="0.56224"
         style="stop-opacity:1;stop-color:#ebea5e" /><stop
         id="stop172"
         offset="0.70786007"
         style="stop-opacity:1;stop-color:#ebea5e" /><stop
         id="stop174"
         offset="1"
         style="stop-opacity:1;stop-color:#b48a33" /></linearGradient><linearGradient
       id="linearGradient204"
       spreadMethod="pad"
       gradientTransform="matrix(534.23999,-10.08,-10.08,-534.23999,191.02803,379.9165)"
       gradientUnits="userSpaceOnUse"
       y2="0"
       x2="1"
       y1="0"
       x1="0"><stop
         id="stop192"
         offset="0"
         style="stop-opacity:1;stop-color:#8c5719" /><stop
         id="stop194"
         offset="0.0360176"
         style="stop-opacity:1;stop-color:#8c5719" /><stop
         id="stop196"
         offset="0.48118032"
         style="stop-opacity:1;stop-color:#ebea5e" /><stop
         id="stop198"
         offset="0.56224"
         style="stop-opacity:1;stop-color:#ebea5e" /><stop
         id="stop200"
         offset="0.70786007"
         style="stop-opacity:1;stop-color:#ebea5e" /><stop
         id="stop202"
         offset="1"
         style="stop-opacity:1;stop-color:#b48a33" /></linearGradient><linearGradient
       id="linearGradient232"
       spreadMethod="pad"
       gradientTransform="matrix(534.23999,-10.08,-10.08,-534.23999,191.0388,380.48746)"
       gradientUnits="userSpaceOnUse"
       y2="0"
       x2="1"
       y1="0"
       x1="0"><stop
         id="stop220"
         offset="0"
         style="stop-opacity:1;stop-color:#8c5719" /><stop
         id="stop222"
         offset="0.0360176"
         style="stop-opacity:1;stop-color:#8c5719" /><stop
         id="stop224"
         offset="0.48118032"
         style="stop-opacity:1;stop-color:#ebea5e" /><stop
         id="stop226"
         offset="0.56224"
         style="stop-opacity:1;stop-color:#ebea5e" /><stop
         id="stop228"
         offset="0.70786007"
         style="stop-opacity:1;stop-color:#ebea5e" /><stop
         id="stop230"
         offset="1"
         style="stop-opacity:1;stop-color:#b48a33" /></linearGradient><linearGradient
       id="linearGradient260"
       spreadMethod="pad"
       gradientTransform="matrix(534.23999,-10.08,-10.08,-534.23999,191.14668,386.20554)"
       gradientUnits="userSpaceOnUse"
       y2="0"
       x2="1"
       y1="0"
       x1="0"><stop
         id="stop248"
         offset="0"
         style="stop-opacity:1;stop-color:#8c5719" /><stop
         id="stop250"
         offset="0.0360176"
         style="stop-opacity:1;stop-color:#8c5719" /><stop
         id="stop252"
         offset="0.48118032"
         style="stop-opacity:1;stop-color:#ebea5e" /><stop
         id="stop254"
         offset="0.56224"
         style="stop-opacity:1;stop-color:#ebea5e" /><stop
         id="stop256"
         offset="0.70786007"
         style="stop-opacity:1;stop-color:#ebea5e" /><stop
         id="stop258"
         offset="1"
         style="stop-opacity:1;stop-color:#b48a33" /></linearGradient><linearGradient
       id="linearGradient288"
       spreadMethod="pad"
       gradientTransform="matrix(534.23999,-10.08,-10.08,-534.23999,191.06421,381.83411)"
       gradientUnits="userSpaceOnUse"
       y2="0"
       x2="1"
       y1="0"
       x1="0"><stop
         id="stop276"
         offset="0"
         style="stop-opacity:1;stop-color:#8c5719" /><stop
         id="stop278"
         offset="0.0360176"
         style="stop-opacity:1;stop-color:#8c5719" /><stop
         id="stop280"
         offset="0.48118032"
         style="stop-opacity:1;stop-color:#ebea5e" /><stop
         id="stop282"
         offset="0.56224"
         style="stop-opacity:1;stop-color:#ebea5e" /><stop
         id="stop284"
         offset="0.70786007"
         style="stop-opacity:1;stop-color:#ebea5e" /><stop
         id="stop286"
         offset="1"
         style="stop-opacity:1;stop-color:#b48a33" /></linearGradient><linearGradient
       id="linearGradient316"
       spreadMethod="pad"
       gradientTransform="matrix(534.23999,-10.08,-10.08,-534.23999,190.95384,375.98508)"
       gradientUnits="userSpaceOnUse"
       y2="0"
       x2="1"
       y1="0"
       x1="0"><stop
         id="stop304"
         offset="0"
         style="stop-opacity:1;stop-color:#8c5719" /><stop
         id="stop306"
         offset="0.0360176"
         style="stop-opacity:1;stop-color:#8c5719" /><stop
         id="stop308"
         offset="0.48118032"
         style="stop-opacity:1;stop-color:#ebea5e" /><stop
         id="stop310"
         offset="0.56224"
         style="stop-opacity:1;stop-color:#ebea5e" /><stop
         id="stop312"
         offset="0.70786007"
         style="stop-opacity:1;stop-color:#ebea5e" /><stop
         id="stop314"
         offset="1"
         style="stop-opacity:1;stop-color:#b48a33" /></linearGradient><linearGradient
       id="linearGradient344"
       spreadMethod="pad"
       gradientTransform="matrix(534.23999,-10.08,-10.08,-534.23999,191.08871,383.13318)"
       gradientUnits="userSpaceOnUse"
       y2="0"
       x2="1"
       y1="0"
       x1="0"><stop
         id="stop332"
         offset="0"
         style="stop-opacity:1;stop-color:#8c5719" /><stop
         id="stop334"
         offset="0.0360176"
         style="stop-opacity:1;stop-color:#8c5719" /><stop
         id="stop336"
         offset="0.48118032"
         style="stop-opacity:1;stop-color:#ebea5e" /><stop
         id="stop338"
         offset="0.56224"
         style="stop-opacity:1;stop-color:#ebea5e" /><stop
         id="stop340"
         offset="0.70786007"
         style="stop-opacity:1;stop-color:#ebea5e" /><stop
         id="stop342"
         offset="1"
         style="stop-opacity:1;stop-color:#b48a33" /></linearGradient><linearGradient
       id="linearGradient372"
       spreadMethod="pad"
       gradientTransform="matrix(534.23999,-10.08,-10.08,-534.23999,191.10303,383.89154)"
       gradientUnits="userSpaceOnUse"
       y2="0"
       x2="1"
       y1="0"
       x1="0"><stop
         id="stop360"
         offset="0"
         style="stop-opacity:1;stop-color:#8c5719" /><stop
         id="stop362"
         offset="0.0360176"
         style="stop-opacity:1;stop-color:#8c5719" /><stop
         id="stop364"
         offset="0.48118032"
         style="stop-opacity:1;stop-color:#ebea5e" /><stop
         id="stop366"
         offset="0.56224"
         style="stop-opacity:1;stop-color:#ebea5e" /><stop
         id="stop368"
         offset="0.70786007"
         style="stop-opacity:1;stop-color:#ebea5e" /><stop
         id="stop370"
         offset="1"
         style="stop-opacity:1;stop-color:#b48a33" /></linearGradient><linearGradient
       id="linearGradient400"
       spreadMethod="pad"
       gradientTransform="matrix(534.23999,-10.08,-10.08,-534.23999,191.12105,384.8464)"
       gradientUnits="userSpaceOnUse"
       y2="0"
       x2="1"
       y1="0"
       x1="0"><stop
         id="stop388"
         offset="0"
         style="stop-opacity:1;stop-color:#8c5719" /><stop
         id="stop390"
         offset="0.0360176"
         style="stop-opacity:1;stop-color:#8c5719" /><stop
         id="stop392"
         offset="0.48118032"
         style="stop-opacity:1;stop-color:#ebea5e" /><stop
         id="stop394"
         offset="0.56224"
         style="stop-opacity:1;stop-color:#ebea5e" /><stop
         id="stop396"
         offset="0.70786007"
         style="stop-opacity:1;stop-color:#ebea5e" /><stop
         id="stop398"
         offset="1"
         style="stop-opacity:1;stop-color:#b48a33" /></linearGradient></defs><g
     transform="matrix(1.3333333,0,0,-1.3333333,0,1587.4)"
     id="g10"><g
       id="g12"><g
         id="g14"><g
           id="g20"><g
             id="g22"><path
               id="path38"
               style="fill:url(#linearGradient36);stroke:none"
               d="m 430.963,741.304 v -42.171 h 44.386 c 56.456,0 86.419,-39.294 86.419,-100.114 v 0 c 0,-33.933 -6.846,-61.173 -20.405,-80.269 v 0 90.37 l -22.495,12.083 -13.162,-8.449 V 491.98 c -1.599,-0.548 -3.231,-1.05 -4.896,-1.506 v 0 120.349 l -11.984,-7.204 V 488.084 c -1.505,-0.197 -3.032,-0.36 -4.584,-0.491 v 0 121.657 l 35.101,19.204 v 28.715 l -35.101,21.235 -15.977,-8.383 v -6.51 -26.267 -55.956 l 6.286,-2.684 v -91.402 h -6.286 v 86.8 l -17.252,8.678 -10.094,-6.067 v -89.411 h -3.983 v 88.023 l -5.973,-5.175 v -82.848 -5.205 -36.358 h 44.902 c 88.663,0 139.965,58.059 139.965,154.373 v 0 c 0,88.772 -52.102,141.292 -136.699,141.292 v 0 z m 91.752,-132.905 v 4.585 l 13.032,-6.647 v -3.962 z m 0,-7.923 v 4.583 l 13.032,-6.646 v -3.961 z m 0,-7.924 v 4.584 l 13.032,-6.646 v -3.962 z m 0,-7.924 v 4.584 l 13.032,-6.647 v -3.961 z m 0,-7.923 v 4.583 l 13.032,-6.646 v -3.962 z m -68.751,-3.221 v 3.293 l 9.994,-4.775 v -2.846 z m 68.751,-4.703 v 4.584 l 13.032,-6.647 v -3.962 z m -68.751,-0.989 v 3.293 l 9.994,-4.774 v -2.845 z m 68.751,-6.935 v 4.584 l 13.032,-6.646 v -3.963 z m -68.751,1.244 v 3.293 l 9.994,-4.774 v -2.846 z m 0,-5.691 v 3.293 l 9.994,-4.775 v -2.846 z m 68.751,-3.477 v 4.584 l 13.032,-6.647 v -3.962 z m -68.751,-2.215 v 3.293 l 9.994,-4.774 v -2.846 z m 68.751,-5.709 v 4.584 l 13.032,-6.646 v -3.962 z m -68.751,0.017 v 3.294 l 9.994,-4.775 v -2.846 z m 0,-5.69 v 3.291 l 9.994,-4.774 v -2.845 z m 68.751,-2.249 v 4.583 l 13.032,-6.647 v -3.962 z m -68.751,-3.443 v 3.292 l 9.994,-4.774 v -2.846 z m 68.751,-4.482 v 4.585 l 13.032,-6.648 v -3.962 z m -68.751,-1.21 v 3.293 l 9.994,-4.775 v -2.845 z m 68.751,-6.713 v 4.583 l 13.032,-6.647 v -3.962 z m -68.751,1.021 v 3.293 l 9.994,-4.774 v -2.846 z m 0,-5.692 v 3.294 l 9.994,-4.775 v -2.846 z m 68.751,-3.253 v 4.584 l 12.732,-6.495 c -0.861,-0.943 -1.744,-1.861 -2.648,-2.751 v 0 z m -68.751,-2.438 v 3.293 l 9.994,-4.774 v -2.845 z m 68.751,-5.486 v 4.584 l 7.44,-3.795 c -1.058,-0.943 -2.141,-1.851 -3.252,-2.725 v 0 z m -68.751,-0.205 v 3.292 l 9.994,-4.773 v -2.846 z m 0,-5.691 v 3.292 l 9.994,-4.775 v -2.845 z m 68.751,2.556 1.381,-0.704 c -0.455,-0.323 -0.917,-0.637 -1.381,-0.95 v 0 z m -68.751,-8.248 v 3.292 l 9.994,-4.774 v -2.846 z m 0,-5.692 v 3.293 l 8.793,-4.202 h -6.696 z" /></g></g></g></g><g
       id="g40"><g
         id="g42"><g
           id="g48"><g
             id="g50"><path
               id="path66"
               style="fill:url(#linearGradient64);stroke:none"
               d="m 362.39,817.703 v -0.844 -64.209 h -82.864 v -0.932 l -0.553,-1.174 -0.469,-0.221 0.183,-0.387 -26.835,-56.923 h -0.369 v -3.111 H 362.39 V 445.639 h 3.271 v 244.263 h 22.013 V 541.361 h -2.865 -11.505 v -54.932 h 14.37 v 50.832 h 1.725 v -50.832 h 14.37 v 54.932 h -13.53 -0.84 v 148.541 h 22.014 V 445.639 h 3.271 v 199.605 c 0.282,0.006 0.594,0.006 0.952,0.007 v 0 c 5.199,0.004 10.399,0.085 15.595,-0.037 v 0 c 2.135,-0.05 2.917,0.722 2.723,2.793 v 0 c -0.601,6.435 0.511,19.05 2.849,25.045 v 0 c 0.473,1.207 0.832,2.461 1.21,3.704 v 0 c 0.724,2.378 0.55,2.647 -1.974,2.655 v 0 c -3.324,0.009 -6.648,0.003 -9.972,-0.004 v 0 c -3.021,-0.005 -6.042,-0.011 -9.064,-0.004 v 0 c -0.462,10e-4 -0.874,-0.002 -1.244,-0.005 v 0 c -0.407,-0.003 -0.763,-0.006 -1.075,-0.003 v 0 10.507 h 36.877 v 3.111 h -36.877 v 56.527 h 15.025 l 0.153,-0.154 0.154,0.154 h 179.6 c -0.014,-9.574 -0.012,-19.148 -0.014,-28.722 v 0 c 0,-0.4 0.024,-0.801 -0.212,-1.175 v 0 c -0.542,-0.858 -0.106,-3.711 0.753,-4.294 v 0 c 0.536,-0.364 0.683,-0.77 0.641,-1.315 v 0 c -0.1,-1.308 0.343,-2.131 1.724,-2.499 v 0 c 1.166,-0.311 1.741,-1.339 1.567,-2.296 v 0 c -0.196,-1.079 -1.042,-1.828 -2.1,-1.862 v 0 c -1.123,-0.037 -1.961,0.613 -2.246,1.823 v 0 c -0.145,0.619 -0.232,1.337 -1.058,1.158 v 0 c -0.843,-0.181 -0.751,-0.928 -0.625,-1.596 v 0 c 0.319,-1.697 1.777,-2.997 3.561,-3.177 v 0 c 1.651,-0.166 3.422,0.998 3.985,2.62 v 0 c 0.609,1.756 0.027,3.561 -1.495,4.633 v 0 c -1.3,0.915 -1.26,1.327 -0.36,2.561 v 0 c 0.792,1.086 1.247,2.536 0.928,3.774 v 0 c -0.236,0.913 -0.382,1.785 -0.383,2.691 v 0 c -0.014,9.225 -0.01,18.451 -0.009,27.676 v 0 h 8.938 v 3.11 H 431.224 l -17.195,17.196 h -10e-4 l -51.638,51.638 z m 3.271,-4.115 45.752,-45.752 V 752.65 h -45.752 z m 49.023,-49.023 11.914,-11.915 H 414.684 Z M 610.206,721.67 c -0.011,9.29 -0.006,18.58 -0.021,27.87 v 0 h 3.496 c -0.017,-9.34 -0.013,-18.681 -0.013,-28.021 v 0 -1.227 c -1.744,0.743 -1.798,0.742 -3.318,-0.019 v 0 c -0.281,0.443 -0.143,0.938 -0.144,1.397 m -244.545,27.87 h 45.752 v -0.154 h -45.752 z m -27.017,0 h 23.746 v -50.372 z m -56.155,0 h 52.166 l -26.083,-55.33 z m 54.161,-3.439 25.025,-53.088 h -50.052 z m -56.156,0 25.026,-53.088 h -50.051 z m 94.378,-13.473 13.664,12.339 13.665,-12.339 v -8.738 l -13.665,12.221 -13.664,-12.221 z m 27.329,-14.119 v -8.738 l -13.665,-12.339 -13.664,12.339 v 8.738 l 13.664,-12.221 z m 13.536,-52.8 c -0.464,0.056 -0.808,0.175 -1.053,0.376 v 0 10.689 c 1.084,0.891 2.329,0.734 3.575,0.577 v 0 c 0.686,-0.086 1.371,-0.172 2.031,-0.084 v 0 c 1.244,0.167 1.425,-0.857 1.418,-1.858 v 0 c -0.009,-1.296 -0.002,-2.593 -0.002,-3.891 v 0 h 0.007 v -0.687 c 0,-4.244 -0.188,-5.394 -2.796,-5.394 v 0 c -0.806,0 -1.844,0.11 -3.18,0.272 m 8.946,1.978 c 0.055,1.292 0.012,2.588 0.012,3.883 v 0 c -0.007,5.763 -0.007,5.763 5.779,5.763 v 0 c 5.008,0 5.008,0 3.63,-4.78 v 0 c -0.189,-0.658 -0.374,-1.319 -0.584,-1.97 v 0 c -1.57,-4.906 -0.71,-4.888 -4.542,-4.87 v 0 c -0.615,0.003 -1.35,0.005 -2.235,-0.012 v 0 c -0.037,-10e-4 -0.074,-10e-4 -0.11,-10e-4 v 0 c -1.37,0 -2.013,0.536 -1.95,1.987 M 400.364,517.048 v -2.614 l -3.78,-3.691 -3.78,3.691 v 2.614 l 3.78,-3.656 z m -23.655,-3.691 3.78,3.691 3.78,-3.691 v -2.614 l -3.78,3.656 -3.78,-3.656 z" /></g></g></g></g><g
       id="g68"><g
         id="g70"><g
           id="g76"><g
             id="g78"><path
               id="path94"
               style="fill:url(#linearGradient92);stroke:none"
               d="m 222.554,396.784 v -41.782 h 12.586 c 1.924,0 3.774,0.249 5.551,0.744 v 0 c 1.777,0.495 3.442,1.198 4.996,2.112 v 0 c 1.554,0.913 2.962,2.004 4.225,3.277 v 0 c 1.263,1.273 2.35,2.681 3.263,4.224 v 0 c 0.913,1.546 1.618,3.205 2.113,4.983 v 0 c 0.496,1.777 0.743,3.628 0.743,5.551 v 0 c 0,1.922 -0.247,3.772 -0.743,5.55 v 0 c -0.495,1.777 -1.2,3.438 -2.113,4.982 v 0 c -0.913,1.544 -2,2.952 -3.263,4.225 v 0 c -1.263,1.272 -2.671,2.365 -4.225,3.278 v 0 c -1.554,0.912 -3.219,1.618 -4.996,2.112 v 0 c -1.777,0.495 -3.627,0.744 -5.551,0.744 v 0 z m 8.42,-8.363 h 4.166 c 1.729,0 3.355,-0.331 4.88,-0.991 v 0 c 1.526,-0.66 2.856,-1.559 3.992,-2.694 v 0 c 1.136,-1.137 2.03,-2.462 2.681,-3.978 v 0 c 0.65,-1.514 0.976,-3.137 0.976,-4.865 v 0 c 0,-1.73 -0.326,-3.355 -0.976,-4.881 v 0 c -0.651,-1.524 -1.545,-2.854 -2.681,-3.991 v 0 c -1.136,-1.137 -2.466,-2.031 -3.992,-2.681 v 0 c -1.525,-0.65 -3.151,-0.976 -4.88,-0.976 v 0 h -4.166 z" /></g></g></g></g><g
       id="g96"><g
         id="g98"><g
           id="g104"><g
             id="g106"><path
               id="path122"
               style="fill:url(#linearGradient120);stroke:none"
               d="m 275.188,396.535 c -1.836,-0.514 -3.555,-1.238 -5.157,-2.17 v 0 c -1.603,-0.933 -3.065,-2.059 -4.385,-3.38 v 0 c -1.321,-1.321 -2.453,-2.777 -3.395,-4.37 v 0 c -0.942,-1.593 -1.67,-3.312 -2.185,-5.157 v 0 c -0.515,-1.846 -0.772,-3.759 -0.772,-5.739 v 0 c 0,-1.982 0.257,-3.89 0.772,-5.726 v 0 c 0.515,-1.835 1.243,-3.555 2.185,-5.157 v 0 c 0.942,-1.603 2.074,-3.064 3.395,-4.385 v 0 c 1.32,-1.321 2.782,-2.453 4.385,-3.395 v 0 c 1.602,-0.942 3.321,-1.67 5.157,-2.184 v 0 c 1.835,-0.515 3.744,-0.773 5.725,-0.773 v 0 c 1.981,0 3.894,0.258 5.74,0.773 v 0 c 1.845,0.514 3.564,1.242 5.157,2.184 v 0 c 1.592,0.942 3.049,2.074 4.37,3.395 v 0 c 1.32,1.321 2.447,2.782 3.38,4.385 v 0 c 0.932,1.602 1.656,3.322 2.17,5.157 v 0 c 0.514,1.836 0.773,3.744 0.773,5.726 v 0 c 0,1.98 -0.259,3.893 -0.773,5.739 v 0 c -0.514,1.845 -1.238,3.564 -2.17,5.157 v 0 c -0.933,1.593 -2.06,3.049 -3.38,4.37 v 0 c -1.321,1.321 -2.778,2.447 -4.37,3.38 v 0 c -1.593,0.932 -3.312,1.656 -5.157,2.17 v 0 c -1.846,0.515 -3.759,0.773 -5.74,0.773 v 0 c -1.981,0 -3.89,-0.258 -5.725,-0.773 m 0.539,-33.025 c -1.613,0.699 -3.021,1.651 -4.225,2.856 v 0 c -1.205,1.204 -2.156,2.607 -2.856,4.21 v 0 c -0.699,1.602 -1.048,3.316 -1.048,5.143 v 0 c 0,1.825 0.349,3.549 1.048,5.17 v 0 c 0.7,1.622 1.651,3.03 2.856,4.226 v 0 c 1.204,1.194 2.612,2.141 4.225,2.84 v 0 c 1.612,0.7 3.34,1.049 5.186,1.049 v 0 c 1.826,0 3.549,-0.349 5.172,-1.049 v 0 c 1.621,-0.699 3.029,-1.646 4.224,-2.84 v 0 c 1.195,-1.196 2.142,-2.604 2.841,-4.226 v 0 c 0.699,-1.621 1.048,-3.345 1.048,-5.17 v 0 c 0,-1.827 -0.349,-3.541 -1.048,-5.143 v 0 c -0.699,-1.603 -1.646,-3.006 -2.841,-4.21 v 0 c -1.195,-1.205 -2.603,-2.157 -4.224,-2.856 v 0 c -1.623,-0.699 -3.346,-1.049 -5.172,-1.049 v 0 c -1.846,0 -3.574,0.35 -5.186,1.049" /></g></g></g></g><g
       id="g124"><g
         id="g126"><g
           id="g132"><g
             id="g134"><path
               id="path150"
               style="fill:url(#linearGradient148);stroke:none"
               d="m 331.9,396.784 -15.558,-20.891 v 20.891 h -8.362 v -41.782 h 8.362 v 8.362 l 6.381,8.537 9.177,-16.899 h 9.499 l -13.199,24.154 13.199,17.628 z" /></g></g></g></g><g
       id="g152"><g
         id="g154"><g
           id="g160"><g
             id="g162"><path
               id="path178"
               style="fill:url(#linearGradient176);stroke:none"
               d="m 341.923,396.784 v -8.363 h 12.558 v -33.419 h 8.333 v 33.419 h 12.528 v 8.363 z" /></g></g></g></g><g
       id="g180"><g
         id="g182"><g
           id="g188"><g
             id="g190"><path
               id="path206"
               style="fill:url(#linearGradient204);stroke:none"
               d="m 404.361,396.784 v -25.087 c 0,-1.145 -0.219,-2.224 -0.655,-3.233 v 0 c -0.438,-1.011 -1.034,-1.894 -1.792,-2.652 v 0 c -0.758,-0.758 -1.646,-1.355 -2.666,-1.792 v 0 c -1.02,-0.438 -2.103,-0.656 -3.249,-0.656 v 0 c -1.146,0 -2.228,0.218 -3.249,0.656 v 0 c -1.019,0.437 -1.908,1.034 -2.666,1.792 v 0 c -0.757,0.758 -1.354,1.641 -1.791,2.652 v 0 c -0.437,1.009 -0.656,2.088 -0.656,3.233 v 0 25.087 h -8.333 v -25.087 c 0,-2.312 0.437,-4.482 1.311,-6.512 v 0 c 0.874,-2.03 2.064,-3.797 3.57,-5.303 v 0 c 1.505,-1.505 3.272,-2.695 5.303,-3.568 v 0 c 2.029,-0.874 4.2,-1.312 6.511,-1.312 v 0 c 2.311,0 4.482,0.438 6.513,1.312 v 0 c 2.028,0.873 3.801,2.063 5.317,3.568 v 0 c 1.514,1.506 2.709,3.273 3.584,5.303 v 0 c 0.873,2.03 1.31,4.2 1.31,6.512 v 0 25.087 z" /></g></g></g></g><g
       id="g208"><g
         id="g210"><g
           id="g216"><g
             id="g218"><path
               id="path234"
               style="fill:url(#linearGradient232);stroke:none"
               d="m 430.06,396.784 c -1.73,0 -3.351,-0.331 -4.867,-0.992 v 0 c -1.514,-0.66 -2.84,-1.558 -3.977,-2.694 v 0 c -1.136,-1.136 -2.035,-2.463 -2.694,-3.978 v 0 c -0.661,-1.515 -0.991,-3.137 -0.991,-4.866 v 0 c 0,-1.728 0.33,-3.355 0.991,-4.88 v 0 c 0.659,-1.525 1.558,-2.855 2.694,-3.991 v 0 c 1.137,-1.137 2.463,-2.035 3.977,-2.695 v 0 c 1.516,-0.661 3.137,-0.991 4.867,-0.991 v 0 h 8.361 c 0.583,0 1.126,-0.107 1.631,-0.321 v 0 c 0.505,-0.213 0.948,-0.509 1.327,-0.888 v 0 c 0.379,-0.379 0.675,-0.82 0.888,-1.325 v 0 c 0.213,-0.507 0.321,-1.05 0.321,-1.633 v 0 c 0,-0.582 -0.108,-1.126 -0.321,-1.631 v 0 c -0.213,-0.505 -0.509,-0.946 -0.888,-1.325 v 0 c -0.379,-0.379 -0.822,-0.676 -1.327,-0.889 v 0 c -0.505,-0.214 -1.048,-0.321 -1.631,-0.321 v 0 h -18.559 v -8.362 h 18.559 c 1.729,0 3.356,0.331 4.88,0.99 v 0 c 1.525,0.661 2.856,1.56 3.992,2.696 v 0 c 1.137,1.136 2.029,2.462 2.681,3.978 v 0 c 0.65,1.514 0.976,3.136 0.976,4.864 v 0 c 0,1.729 -0.326,3.356 -0.976,4.88 v 0 c -0.652,1.526 -1.544,2.856 -2.681,3.992 v 0 c -1.136,1.136 -2.467,2.03 -3.992,2.682 v 0 c -1.524,0.649 -3.151,0.975 -4.88,0.975 v 0 h -8.361 c -0.584,0 -1.127,0.106 -1.632,0.321 v 0 c -0.505,0.213 -0.948,0.509 -1.326,0.888 v 0 c -0.379,0.379 -0.676,0.826 -0.888,1.341 v 0 c -0.215,0.515 -0.321,1.064 -0.321,1.645 v 0 c 0,0.583 0.106,1.127 0.321,1.632 v 0 c 0.212,0.505 0.509,0.947 0.888,1.326 v 0 c 0.378,0.379 0.821,0.675 1.326,0.889 v 0 c 0.505,0.213 1.048,0.32 1.632,0.32 v 0 h 19.17 v 8.363 z" /></g></g></g></g><g
       id="g236"><g
         id="g238"><g
           id="g244"><g
             id="g246"><path
               id="path262"
               style="fill:url(#linearGradient260);stroke:none"
               d="m 475.847,406.383 c -0.457,-0.204 -0.856,-0.476 -1.195,-0.815 v 0 c -0.34,-0.34 -0.612,-0.738 -0.816,-1.194 v 0 c -0.204,-0.458 -0.306,-0.938 -0.306,-1.443 v 0 c 0,-0.525 0.102,-1.015 0.306,-1.472 v 0 c 0.204,-0.457 0.476,-0.854 0.816,-1.194 v 0 c 0.339,-0.34 0.738,-0.607 1.195,-0.802 v 0 c 0.455,-0.194 0.936,-0.291 1.442,-0.291 v 0 c 0.505,0 0.981,0.097 1.428,0.291 v 0 c 0.446,0.195 0.84,0.462 1.179,0.802 v 0 c 0.34,0.34 0.607,0.737 0.801,1.194 v 0 c 0.195,0.457 0.292,0.947 0.292,1.472 v 0 c 0,0.505 -0.097,0.985 -0.292,1.443 v 0 c -0.194,0.456 -0.461,0.854 -0.801,1.194 v 0 c -0.339,0.339 -0.733,0.611 -1.179,0.815 v 0 c -0.447,0.205 -0.923,0.306 -1.428,0.306 v 0 c -0.506,0 -0.987,-0.101 -1.442,-0.306 m -2.725,-51.381 h 8.363 v 41.782 h -8.363 z" /></g></g></g></g><g
       id="g264"><g
         id="g266"><g
           id="g272"><g
             id="g274"><path
               id="path290"
               style="fill:url(#linearGradient288);stroke:none"
               d="m 514.291,396.784 v -27.535 l -16.112,27.535 h -8.944 v -41.782 h 8.361 v 27.504 l 16.112,-27.504 h 8.945 v 41.782 z" /></g></g></g></g><g
       id="g292"><g
         id="g294"><g
           id="g300"><g
             id="g302"><path
               id="path318"
               style="fill:url(#linearGradient316);stroke:none"
               d="m 540.484,396.784 c -1.729,0 -3.351,-0.331 -4.866,-0.992 v 0 c -1.515,-0.66 -2.841,-1.558 -3.976,-2.694 v 0 c -1.137,-1.136 -2.035,-2.463 -2.696,-3.978 v 0 c -0.66,-1.515 -0.99,-3.137 -0.99,-4.866 v 0 c 0,-1.728 0.33,-3.355 0.99,-4.88 v 0 c 0.661,-1.525 1.559,-2.855 2.696,-3.991 v 0 c 1.135,-1.137 2.461,-2.035 3.976,-2.695 v 0 c 1.515,-0.661 3.137,-0.991 4.866,-0.991 v 0 h 8.362 c 0.582,0 1.127,-0.107 1.632,-0.321 v 0 c 0.505,-0.213 0.947,-0.509 1.325,-0.888 v 0 c 0.379,-0.379 0.675,-0.82 0.89,-1.325 v 0 c 0.212,-0.507 0.32,-1.05 0.32,-1.633 v 0 c 0,-0.582 -0.108,-1.126 -0.32,-1.631 v 0 c -0.215,-0.505 -0.511,-0.946 -0.89,-1.325 v 0 c -0.378,-0.379 -0.82,-0.676 -1.325,-0.889 v 0 c -0.505,-0.214 -1.05,-0.321 -1.632,-0.321 v 0 h -18.56 v -8.362 h 13.432 l -2.098,-5.856 c 0.505,0.331 1.058,0.495 1.661,0.495 v 0 c 0.485,0 0.936,-0.116 1.355,-0.349 v 0 c 0.417,-0.233 0.626,-0.622 0.626,-1.166 v 0 c 0,-0.446 -0.141,-0.805 -0.422,-1.078 v 0 c -0.282,-0.271 -0.637,-0.408 -1.064,-0.408 v 0 c -0.33,0 -0.699,0.088 -1.108,0.262 v 0 c -0.406,0.176 -0.805,0.37 -1.194,0.584 v 0 c -0.447,0.233 -0.893,0.514 -1.339,0.845 v 0 l -1.603,-4.372 c 0.505,-0.407 1.049,-0.785 1.632,-1.136 v 0 c 0.505,-0.29 1.077,-0.563 1.719,-0.815 v 0 c 0.641,-0.253 1.31,-0.399 2.009,-0.437 v 0 h 0.468 c 0.951,0 1.829,0.136 2.636,0.408 v 0 c 0.806,0.271 1.5,0.664 2.083,1.179 v 0 c 0.583,0.515 1.039,1.152 1.369,1.909 v 0 c 0.33,0.758 0.496,1.622 0.496,2.593 v 0 c 0,0.699 -0.117,1.346 -0.349,1.938 v 0 c -0.233,0.593 -0.55,1.107 -0.948,1.544 v 0 c -0.398,0.437 -0.868,0.792 -1.413,1.063 v 0 c -0.544,0.273 -1.117,0.447 -1.718,0.525 v 0 l 0.786,2.272 h 1.544 c 1.728,0 3.355,0.331 4.881,0.99 v 0 c 1.524,0.661 2.855,1.56 3.99,2.696 v 0 c 1.137,1.136 2.03,2.462 2.681,3.978 v 0 c 0.651,1.514 0.977,3.136 0.977,4.864 v 0 c 0,1.729 -0.326,3.356 -0.977,4.88 v 0 c -0.651,1.526 -1.544,2.856 -2.681,3.992 v 0 c -1.135,1.136 -2.466,2.03 -3.99,2.682 v 0 c -1.526,0.649 -3.153,0.975 -4.881,0.975 v 0 h -8.362 c -0.583,0 -1.127,0.106 -1.632,0.321 v 0 c -0.504,0.213 -0.946,0.509 -1.324,0.888 v 0 c -0.379,0.379 -0.676,0.826 -0.89,1.341 v 0 c -0.215,0.515 -0.321,1.064 -0.321,1.645 v 0 c 0,0.583 0.106,1.127 0.321,1.632 v 0 c 0.214,0.505 0.511,0.947 0.89,1.326 v 0 c 0.378,0.379 0.82,0.675 1.324,0.889 v 0 c 0.505,0.213 1.049,0.32 1.632,0.32 v 0 h 19.171 v 8.363 z" /></g></g></g></g><g
       id="g320"><g
         id="g322"><g
           id="g328"><g
             id="g330"><path
               id="path346"
               style="fill:url(#linearGradient344);stroke:none"
               d="m 576.57,395.472 c -2.031,-0.874 -3.798,-2.068 -5.303,-3.584 v 0 c -1.507,-1.515 -2.696,-3.287 -3.569,-5.317 v 0 c -0.874,-2.03 -1.313,-4.201 -1.313,-6.512 v 0 -25.057 h 8.333 v 8.362 h 16.725 v -8.362 h 8.362 v 25.057 c 0,2.311 -0.437,4.482 -1.311,6.512 v 0 c -0.874,2.03 -2.069,3.802 -3.584,5.317 v 0 c -1.515,1.516 -3.288,2.71 -5.317,3.584 v 0 c -2.031,0.874 -4.201,1.312 -6.512,1.312 v 0 c -2.312,0 -4.483,-0.438 -6.511,-1.312 m -1.852,-15.413 c 0,1.147 0.219,2.229 0.657,3.249 v 0 c 0.437,1.02 1.034,1.908 1.791,2.666 v 0 c 0.758,0.757 1.646,1.354 2.666,1.792 v 0 c 1.021,0.436 2.103,0.655 3.249,0.655 v 0 c 1.146,0 2.229,-0.219 3.249,-0.655 v 0 c 1.02,-0.438 1.908,-1.035 2.665,-1.792 v 0 c 0.758,-0.758 1.355,-1.646 1.792,-2.666 v 0 c 0.437,-1.02 0.656,-2.102 0.656,-3.249 v 0 -8.362 h -16.725 z" /></g></g></g></g><g
       id="g348"><g
         id="g350"><g
           id="g356"><g
             id="g358"><path
               id="path374"
               style="fill:url(#linearGradient372);stroke:none"
               d="m 616.776,395.472 c -2.029,-0.874 -3.797,-2.068 -5.302,-3.584 v 0 c -1.505,-1.515 -2.695,-3.287 -3.569,-5.317 v 0 c -0.875,-2.03 -1.311,-4.201 -1.311,-6.512 v 0 -25.057 h 8.333 v 8.362 h 16.724 v -8.362 h 8.362 v 25.057 c 0,2.311 -0.438,4.482 -1.312,6.512 v 0 c -0.874,2.03 -2.068,3.802 -3.583,5.317 v 0 c -1.515,1.516 -3.288,2.71 -5.317,3.584 v 0 c -2.03,0.874 -4.201,1.312 -6.513,1.312 v 0 c -2.311,0 -4.481,-0.438 -6.512,-1.312 m -1.849,-15.413 c 0,1.147 0.219,2.229 0.655,3.249 v 0 c 0.437,1.02 1.034,1.908 1.792,2.666 v 0 c 0.758,0.757 1.647,1.354 2.666,1.792 v 0 c 1.019,0.436 2.103,0.655 3.248,0.655 v 0 c 1.146,0 2.23,-0.219 3.249,-0.655 v 0 c 1.019,-0.438 1.909,-1.035 2.666,-1.792 v 0 c 0.758,-0.758 1.355,-1.646 1.792,-2.666 v 0 c 0.437,-1.02 0.656,-2.102 0.656,-3.249 v 0 -8.362 h -16.724 z" /></g></g></g></g><g
       id="g376"><g
         id="g378"><g
           id="g384"><g
             id="g386"><path
               id="path402"
               style="fill:url(#linearGradient400);stroke:none"
               d="m 642.664,396.784 v -8.363 h 12.558 v -33.419 h 8.333 v 33.419 h 12.528 v 8.363 z" /></g></g></g></g></g></svg>